<?xml version="1.0" encoding="UTF-8"?>
<svg id="Layer_2" data-name="Layer 2" xmlns="http://www.w3.org/2000/svg" viewBox="0 0 185.84 194">
  <defs>
    <style>
      .cls-1 {
        fill: #d4dee3;
      }
    </style>
  </defs>
  <g id="Layer_1-2" data-name="Layer 1">
    <path class="cls-1" d="M185.82,91.62c-.01-1.19-.03-2.4-.04-3.62-.01-1.21-.03-2.44-.04-3.68-.03-1.25-.04-2.51-.07-3.79-.03-1.28-.06-2.57-.1-3.89-.03-1.32-.07-2.67-.11-4.05-.04-1.36-.09-2.77-.14-4.21-.04-1.44-.1-2.9-.17-4.41-.06-1.51-.13-3.06-.22-4.64-.07-1.48-.36-2.97-.88-4.42-.49-1.41-1.18-2.76-2.05-4.04-.85-1.26-1.87-2.44-3.03-3.5-1.18-1.06-2.49-2.01-3.89-2.8-1.42-.8-2.82-1.59-4.18-2.37-1.37-.76-2.7-1.52-4.01-2.27-1.29-.73-2.57-1.47-3.82-2.17-1.25-.72-2.47-1.42-3.68-2.11-1.19-.69-2.37-1.36-3.53-2.03-1.16-.66-2.3-1.32-3.43-1.97L109.54,6.83c-1.25-.72-2.51-1.45-3.81-2.18-1.29-.75-2.61-1.51-3.96-2.28-1.35-.78-2.8-1.38-4.31-1.77-2.97-.79-6.13-.79-9.09,0-1.51.39-2.96.99-4.32,1.77-1.34.78-2.66,1.54-3.95,2.28-1.29.73-2.56,1.46-3.81,2.18-1.24.72-2.46,1.42-3.66,2.11l-42.63,24.68c-1.16.66-2.34,1.34-3.55,2.03-1.19.69-2.41,1.39-3.66,2.11-1.25.7-2.53,1.44-3.84,2.17-1.29.75-2.63,1.51-3.99,2.27-1.36.78-2.76,1.57-4.19,2.37-1.39.79-2.7,1.74-3.88,2.8-1.16,1.06-2.18,2.24-3.03,3.49-.88,1.29-1.57,2.64-2.05,4.05-.52,1.45-.82,2.94-.89,4.42-.07,1.58-.14,3.13-.2,4.64-.07,1.51-.13,2.97-.19,4.41-.04,1.44-.1,2.84-.14,4.21-.04,1.38-.07,2.73-.11,4.05-.03,1.32-.06,2.61-.09,3.89-.03,1.28-.06,2.54-.07,3.79-.01,1.24-.04,2.47-.06,3.68-.01,1.22-.01,2.43-.03,3.62,0,1.21-.01,2.4-.01,3.59v3.56c0,1.19.01,2.38.01,3.59.01,1.19.01,2.4.03,3.62.01,1.22.04,2.44.06,3.69.01,1.24.04,2.5.07,3.78.03,1.28.06,2.57.09,3.89.04,1.32.07,2.67.11,4.05.04,1.36.1,2.77.14,4.21.06,1.44.11,2.9.19,4.41.06,1.51.13,3.06.2,4.64.07,1.49.37,2.97.89,4.42.49,1.41,1.18,2.76,2.05,4.05.85,1.25,1.87,2.43,3.03,3.49,1.18,1.06,2.49,2.01,3.88,2.8,1.44.8,2.83,1.59,4.19,2.37,1.36.78,2.7,1.52,3.99,2.27,1.31.73,2.59,1.47,3.84,2.17,1.25.72,2.47,1.42,3.66,2.11l3.55,2.03c1.16.66,2.3,1.32,3.42,1.97l42.88,24.82c1.25.72,2.51,1.45,3.81,2.18,1.29.75,2.61,1.51,3.95,2.28,1.36.78,2.82,1.38,4.32,1.78,1.48.39,3.02.59,4.54.59s3.07-.2,4.55-.59c1.51-.4,2.96-1.01,4.31-1.78,1.35-.78,2.67-1.54,3.96-2.28,1.29-.73,2.56-1.47,3.81-2.18l42.86-24.82c1.13-.65,2.27-1.31,3.43-1.97l3.53-2.03c1.21-.69,2.43-1.39,3.68-2.11,1.25-.7,2.53-1.44,3.82-2.17,1.31-.75,2.64-1.49,4.01-2.27,1.36-.78,2.76-1.57,4.18-2.37,1.41-.79,2.71-1.74,3.89-2.8,1.16-1.06,2.18-2.24,3.03-3.49.88-1.29,1.57-2.64,2.05-4.05.52-1.45.8-2.94.88-4.42.09-1.58.16-3.13.22-4.64.07-1.51.13-2.97.17-4.41.06-1.44.1-2.84.14-4.21.04-1.38.09-2.73.11-4.05.04-1.32.07-2.61.1-3.89.03-1.28.04-2.54.07-3.78.01-1.25.03-2.47.04-3.69.01-1.22.03-2.43.04-3.62,0-1.21.01-2.4.01-3.59v-3.56c0-1.19-.01-2.38-.01-3.59ZM91.75,116h-10.29l-.71,3.57c-3.07,15.4-16.58,26.48-32.28,26.48h-3.05l5.99-30.05c3.07-15.4,16.58-26.48,32.28-26.48h40.34c-3.07,15.4-16.58,26.48-32.28,26.48ZM111.55,81.84h-53.19c-.07,0-.13-.07-.12-.14,3.41-17.13,18.45-29.47,35.92-29.47h53.48c-3.43,17.22-18.54,29.61-36.09,29.61Z"/>
  </g>
</svg>