<?xml version="1.0" encoding="UTF-8"?>
<svg id="Layer_2" data-name="Layer 2" xmlns="http://www.w3.org/2000/svg" viewBox="0 0 381.76 95.64">
  <defs>
    <style>
      .cls-1 {
        fill: #d4dee3;
      }
    </style>
  </defs>
  <g id="Layer_1-2" data-name="Layer 1">
    <g>
      <g>
        <g>
          <path class="cls-1" d="M169.61,15.48c-1.2,0-2.7,0-3.9,0-12.4,0-20.78,8.36-20.78,18.65s8.38,18.65,20.78,18.65h3.9c12.4,0,20.78-8.35,20.78-18.65s-8.38-18.65-20.78-18.65ZM170.24,42.59h-5.16c-5.97,0-9.43-3.48-9.43-8.46s3.46-8.46,9.43-8.46c1.6,0,3.56,0,5.16,0,5.96,0,9.43,3.48,9.43,8.46s-3.46,8.46-9.43,8.46Z"/>
          <path class="cls-1" d="M227.72,41.34c1.47-.95,2.77-2.17,3.81-3.55,1.75-2.3,2.8-5.08,2.8-7.92,0-3.02-1.01-5.86-2.8-8.17-2.44-3.14-6.31-5.28-11.05-5.52h-26.7v35.87h10.45v-8.52h13.7l4.9,8.52h11.42s-5.16-8.52-5.16-8.52l-1.35-2.21ZM221.68,33.79h-17.46v-7.84h17.46c.18.14,1.98.25,1.98,4.04s-1.77,3.64-1.98,3.8Z"/>
          <path class="cls-1" d="M314.1,41.34c1.47-.95,2.77-2.17,3.81-3.55,1.75-2.3,2.8-5.08,2.8-7.92,0-3.02-1.01-5.86-2.8-8.17-2.44-3.14-6.31-5.28-11.05-5.52h-26.7v35.87h10.45v-8.52h13.7l4.9,8.52h11.42s-5.16-8.52-5.16-8.52l-1.35-2.21ZM308.06,33.79h-17.46v-7.84h17.46c.18.14,1.98.25,1.98,4.04s-1.77,3.64-1.98,3.8Z"/>
          <polygon class="cls-1" points="276.76 16.19 236.33 16.19 236.33 25.97 251.31 25.97 251.31 52.08 261.78 52.08 261.78 25.97 276.76 25.97 276.76 16.19"/>
          <rect class="cls-1" x="324.5" y="16.18" width="10.44" height="35.9"/>
          <polygon class="cls-1" points="144.42 25.32 144.42 16.18 119.62 16.18 117.51 16.18 109.18 16.18 109.18 52.09 119.62 52.09 119.62 39.03 140.51 39.03 140.51 29.89 119.62 29.89 119.62 25.32 144.42 25.32"/>
          <polygon class="cls-1" points="367.37 34.14 381.76 52.07 369.02 52.08 359.57 41.42 350.11 52.08 337.38 52.08 337.38 52.08 351.76 34.14 337.38 16.19 337.38 16.19 350.11 16.19 359.57 26.84 369.02 16.19 381.76 16.2 367.37 34.14"/>
        </g>
        <g>
          <path class="cls-1" d="M118.73,68.12c-.59-.58-1.26-1.01-2.02-1.31-.76-.29-1.55-.44-2.38-.44-.77,0-1.39.18-1.85.54-.46.36-.69.82-.69,1.39,0,.39.21.73.64,1.01.42.28,1.02.53,1.79.74.15.06.3.11.44.15.14.04.28.07.4.1.91.26,1.69.51,2.34.77.65.26,1.24.58,1.77.98.44.33.79.76,1.04,1.27.26.52.39,1.1.39,1.75,0,1.48-.53,2.64-1.59,3.46s-2.48,1.24-4.27,1.24c-1.33,0-2.51-.21-3.54-.64s-1.91-1.01-2.63-1.77l1.5-1.98c.61.67,1.31,1.18,2.12,1.56.81.37,1.7.56,2.67.56.89,0,1.62-.19,2.18-.56.56-.37.84-.9.84-1.58,0-.44-.15-.79-.45-1.07-.3-.27-.68-.49-1.14-.65-.45-.16-1.09-.34-1.91-.56-1.12-.27-2.03-.55-2.74-.84-.7-.29-1.31-.73-1.82-1.33-.51-.6-.76-1.39-.76-2.37,0-.83.23-1.59.68-2.26.45-.67,1.1-1.21,1.93-1.6.83-.39,1.8-.59,2.91-.59,2.35,0,4.23.71,5.65,2.13l-1.5,1.88Z"/>
          <path class="cls-1" d="M127.67,64.35l4.15,6.47,4.15-6.47h3.04l-5.86,8.86v6.29h-2.66v-6.29l-5.88-8.86h3.04Z"/>
          <path class="cls-1" d="M152.81,68.12c-.59-.58-1.26-1.01-2.02-1.31-.76-.29-1.55-.44-2.38-.44-.77,0-1.39.18-1.85.54-.46.36-.69.82-.69,1.39,0,.39.21.73.64,1.01.42.28,1.02.53,1.79.74.15.06.3.11.44.15.14.04.28.07.4.1.91.26,1.69.51,2.34.77.65.26,1.24.58,1.77.98.44.33.79.76,1.04,1.27.26.52.39,1.1.39,1.75,0,1.48-.53,2.64-1.59,3.46s-2.48,1.24-4.27,1.24c-1.33,0-2.51-.21-3.54-.64s-1.91-1.01-2.63-1.77l1.5-1.98c.61.67,1.31,1.18,2.12,1.56.81.37,1.7.56,2.67.56.89,0,1.62-.19,2.18-.56.56-.37.84-.9.84-1.58,0-.44-.15-.79-.45-1.07-.3-.27-.68-.49-1.14-.65-.45-.16-1.09-.34-1.91-.56-1.12-.27-2.03-.55-2.74-.84-.7-.29-1.31-.73-1.82-1.33-.51-.6-.76-1.39-.76-2.37,0-.83.23-1.59.68-2.26.45-.67,1.1-1.21,1.93-1.6.83-.39,1.8-.59,2.91-.59,2.35,0,4.23.71,5.65,2.13l-1.5,1.88Z"/>
          <path class="cls-1" d="M171.13,64.35v2.34h-4.59v12.81h-2.66v-12.81h-4.59v-2.34h11.83Z"/>
          <path class="cls-1" d="M187.16,64.35v2.34h-7.72v3.91h6.72v2.34h-6.72v4.22h7.72v2.34h-10.38v-15.14h10.38Z"/>
          <path class="cls-1" d="M196.74,64.35l4.31,7.45,4.31-7.45h3.61v15.14h-2.66v-11.58l-4.61,8.24h-1.32l-4.61-8.24v11.58h-2.66v-15.14h3.61Z"/>
          <path class="cls-1" d="M224.85,68.12c-.59-.58-1.26-1.01-2.02-1.31-.76-.29-1.55-.44-2.38-.44-.77,0-1.39.18-1.85.54-.46.36-.69.82-.69,1.39,0,.39.21.73.64,1.01.42.28,1.02.53,1.79.74.15.06.3.11.44.15.14.04.28.07.4.1.91.26,1.69.51,2.34.77.65.26,1.24.58,1.77.98.44.33.79.76,1.04,1.27.26.52.39,1.1.39,1.75,0,1.48-.53,2.64-1.59,3.46s-2.48,1.24-4.27,1.24c-1.33,0-2.51-.21-3.54-.64s-1.91-1.01-2.63-1.77l1.5-1.98c.61.67,1.31,1.18,2.12,1.56.81.37,1.7.56,2.67.56.89,0,1.62-.19,2.18-.56.56-.37.84-.9.84-1.58,0-.44-.15-.79-.45-1.07-.3-.27-.68-.49-1.14-.65-.45-.16-1.09-.34-1.91-.56-1.12-.27-2.03-.55-2.74-.84-.7-.29-1.31-.73-1.82-1.33-.51-.6-.76-1.39-.76-2.37,0-.83.23-1.59.68-2.26.45-.67,1.1-1.21,1.93-1.6.83-.39,1.8-.59,2.91-.59,2.35,0,4.23.71,5.65,2.13l-1.5,1.88Z"/>
        </g>
      </g>
      <path class="cls-1" d="M91.61,45.17c0-.59-.01-1.18-.02-1.78,0-.59-.01-1.2-.02-1.81-.01-.62-.02-1.24-.04-1.87-.01-.63-.03-1.27-.05-1.92-.01-.65-.04-1.32-.06-2-.02-.67-.04-1.37-.07-2.08-.02-.71-.05-1.43-.09-2.17-.03-.74-.06-1.51-.11-2.29-.04-.73-.18-1.47-.43-2.18-.24-.69-.58-1.36-1.01-1.99-.42-.62-.92-1.2-1.49-1.73-.58-.52-1.23-.99-1.92-1.38-.7-.4-1.39-.79-2.06-1.17-.67-.38-1.33-.75-1.98-1.12-.64-.36-1.27-.72-1.88-1.07-.62-.35-1.22-.7-1.81-1.04-.59-.34-1.17-.67-1.74-1-.57-.33-1.13-.65-1.69-.97L54,3.37c-.62-.35-1.24-.72-1.88-1.08-.64-.37-1.29-.74-1.95-1.13-.67-.38-1.38-.68-2.12-.87-1.47-.39-3.02-.39-4.48,0-.74.19-1.46.49-2.13.87-.66.38-1.31.76-1.95,1.13-.64.36-1.26.72-1.88,1.08-.61.35-1.21.7-1.81,1.04l-21.02,12.17c-.57.33-1.15.66-1.75,1-.59.34-1.19.69-1.81,1.04-.62.35-1.25.71-1.89,1.07-.64.37-1.3.74-1.97,1.12-.67.38-1.36.77-2.07,1.17-.69.39-1.33.86-1.91,1.38-.57.52-1.08,1.1-1.49,1.72-.43.64-.77,1.3-1.01,2-.25.72-.4,1.45-.44,2.18-.04.78-.07,1.54-.1,2.29-.04.74-.06,1.47-.09,2.17-.02.71-.05,1.4-.07,2.08-.02.68-.04,1.35-.06,2-.01.65-.03,1.29-.04,1.92-.01.63-.03,1.25-.04,1.87,0,.61-.02,1.22-.03,1.81,0,.6,0,1.2-.01,1.78,0,.59,0,1.18,0,1.77v1.76c0,.59,0,1.18,0,1.77,0,.59,0,1.18.01,1.78,0,.6.02,1.2.03,1.82,0,.61.02,1.23.04,1.86.01.63.03,1.27.04,1.92.02.65.04,1.32.06,2,.02.67.05,1.37.07,2.07.03.71.06,1.43.09,2.17.03.74.06,1.51.1,2.29.04.74.18,1.47.44,2.18.24.69.58,1.36,1.01,2,.42.62.92,1.2,1.49,1.72.58.52,1.23.99,1.91,1.38.71.4,1.39.79,2.07,1.17.67.38,1.33.75,1.97,1.12.64.36,1.27.72,1.89,1.07.62.35,1.22.7,1.81,1.04l1.75,1c.57.33,1.13.65,1.69.97l21.14,12.24c.62.35,1.24.72,1.88,1.08.64.37,1.29.74,1.95,1.13.67.38,1.39.68,2.13.88.73.19,1.49.29,2.24.29s1.52-.1,2.25-.29c.74-.2,1.46-.5,2.12-.88.67-.38,1.32-.76,1.95-1.13.64-.36,1.26-.72,1.88-1.08l21.13-12.24c.56-.32,1.12-.64,1.69-.97l1.74-1c.59-.34,1.2-.69,1.81-1.04.62-.35,1.25-.71,1.88-1.07.64-.37,1.3-.74,1.98-1.12.67-.38,1.36-.77,2.06-1.17.69-.39,1.34-.86,1.92-1.38.57-.52,1.08-1.1,1.49-1.72.43-.64.77-1.3,1.01-2,.25-.72.4-1.45.43-2.18.04-.78.08-1.54.11-2.29.04-.74.06-1.47.09-2.17.03-.71.05-1.4.07-2.07.02-.68.04-1.35.06-2,.02-.65.04-1.29.05-1.92.01-.63.02-1.25.04-1.86,0-.62.01-1.22.02-1.82,0-.6.01-1.2.02-1.78,0-.59,0-1.18,0-1.77v-1.76c0-.59,0-1.18,0-1.77ZM45.23,57.19h-5.07l-.35,1.76c-1.51,7.59-8.17,13.05-15.91,13.05h-1.5l2.95-14.81c1.51-7.59,8.17-13.05,15.91-13.05h19.89c-1.51,7.59-8.17,13.05-15.91,13.05ZM54.99,40.35h-26.22s-.06-.03-.06-.07c1.68-8.45,9.1-14.53,17.71-14.53h26.36c-1.69,8.49-9.14,14.6-17.79,14.6Z"/>
    </g>
  </g>
</svg>