<?xml version="1.0" encoding="UTF-8"?>
<svg id="Layer_2" data-name="Layer 2" xmlns="http://www.w3.org/2000/svg" viewBox="0 0 328.27 206.54">
  <defs>
    <style>
      .cls-1 {
        fill: #6ca7a6;
      }

      .cls-2 {
        fill: #203b4c;
      }
    </style>
  </defs>
  <g id="Layer_1-2" data-name="Layer 1">
    <g>
      <g>
        <g>
          <path class="cls-2" d="M72.78,128.74c-1.44,0-3.26,0-4.7,0-14.93,0-25.02,10.06-25.02,22.46s10.09,22.46,25.02,22.46h4.7c14.93,0,25.02-10.05,25.02-22.46s-10.09-22.46-25.02-22.46ZM73.54,161.39h-6.21c-7.19,0-11.36-4.19-11.36-10.18s4.17-10.18,11.36-10.18c1.92,0,4.29,0,6.21,0,7.18,0,11.35,4.19,11.35,10.18s-4.17,10.18-11.35,10.18Z"/>
          <path class="cls-2" d="M142.76,159.88c1.77-1.14,3.33-2.61,4.59-4.27,2.11-2.77,3.37-6.11,3.37-9.53,0-3.64-1.21-7.06-3.37-9.83-2.93-3.78-7.6-6.35-13.31-6.64h-32.16v43.2h12.58v-10.26h16.49l5.9,10.26h13.75s-6.22-10.26-6.22-10.26l-1.62-2.66ZM135.49,150.79h-21.03v-9.44h21.03c.21.17,2.38.3,2.38,4.87s-2.13,4.38-2.38,4.57Z"/>
          <path class="cls-2" d="M246.79,159.88c1.77-1.14,3.33-2.61,4.59-4.27,2.11-2.77,3.37-6.11,3.37-9.53,0-3.64-1.21-7.06-3.37-9.83-2.93-3.78-7.6-6.35-13.31-6.64h-32.16v43.2h12.58v-10.26h16.49l5.9,10.26h13.75s-6.22-10.26-6.22-10.26l-1.62-2.66ZM239.51,150.79h-21.03v-9.44h21.03c.21.17,2.38.3,2.38,4.87s-2.13,4.38-2.38,4.57Z"/>
          <polygon class="cls-2" points="201.82 129.59 153.13 129.59 153.13 141.37 171.17 141.37 171.17 172.81 183.78 172.81 183.78 141.37 201.82 141.37 201.82 129.59"/>
          <rect class="cls-2" x="259.31" y="129.58" width="12.58" height="43.23"/>
          <polygon class="cls-2" points="42.45 140.59 42.45 129.58 12.57 129.58 10.03 129.58 0 129.58 0 172.82 12.57 172.82 12.57 157.1 37.73 157.1 37.73 146.09 12.57 146.09 12.57 140.59 42.45 140.59"/>
          <polygon class="cls-2" points="310.95 151.21 328.27 172.8 312.93 172.82 301.55 159.98 290.15 172.82 274.82 172.82 274.82 172.81 292.14 151.21 274.82 129.6 274.82 129.59 290.15 129.59 301.55 142.42 312.93 129.59 328.27 129.6 310.95 151.21"/>
        </g>
        <g>
          <path class="cls-2" d="M105.24,192.51c-.71-.69-1.52-1.22-2.43-1.57-.91-.36-1.87-.53-2.87-.53-.93,0-1.67.22-2.23.66-.56.44-.83.99-.83,1.67,0,.47.26.88.77,1.22.51.34,1.23.63,2.16.89.18.07.36.13.53.18.17.05.33.09.48.12,1.09.31,2.03.62,2.82.93.78.31,1.49.7,2.13,1.18.53.4.95.91,1.26,1.53.31.62.47,1.32.47,2.11,0,1.79-.64,3.18-1.91,4.17s-2.99,1.49-5.14,1.49c-1.6,0-3.03-.26-4.27-.77-1.24-.51-2.3-1.22-3.17-2.13l1.8-2.38c.73.8,1.58,1.43,2.56,1.87.97.45,2.05.67,3.21.67,1.08,0,1.95-.22,2.63-.67.67-.45,1.01-1.08,1.01-1.9,0-.53-.18-.96-.55-1.29-.36-.33-.82-.59-1.37-.78-.55-.19-1.31-.41-2.3-.67-1.35-.33-2.45-.66-3.29-1.01-.85-.35-1.58-.88-2.19-1.6-.61-.72-.92-1.67-.92-2.86,0-1,.27-1.91.82-2.72.55-.81,1.32-1.45,2.32-1.93,1-.47,2.17-.71,3.5-.71,2.83,0,5.09.86,6.81,2.57l-1.8,2.27Z"/>
          <path class="cls-2" d="M116.01,187.97l5,7.79,5-7.79h3.66l-7.05,10.66v7.57h-3.2v-7.57l-7.08-10.66h3.66Z"/>
          <path class="cls-2" d="M146.28,192.51c-.71-.69-1.52-1.22-2.43-1.57-.91-.36-1.87-.53-2.87-.53-.93,0-1.67.22-2.23.66-.56.44-.83.99-.83,1.67,0,.47.26.88.77,1.22.51.34,1.23.63,2.16.89.18.07.36.13.53.18.17.05.33.09.48.12,1.09.31,2.03.62,2.82.93.78.31,1.49.7,2.13,1.18.53.4.95.91,1.26,1.53.31.62.47,1.32.47,2.11,0,1.79-.64,3.18-1.91,4.17s-2.99,1.49-5.14,1.49c-1.6,0-3.03-.26-4.27-.77-1.24-.51-2.3-1.22-3.17-2.13l1.8-2.38c.73.8,1.58,1.43,2.56,1.87.97.45,2.05.67,3.21.67,1.08,0,1.95-.22,2.63-.67.67-.45,1.01-1.08,1.01-1.9,0-.53-.18-.96-.55-1.29-.36-.33-.82-.59-1.37-.78-.55-.19-1.31-.41-2.3-.67-1.35-.33-2.45-.66-3.29-1.01-.85-.35-1.58-.88-2.19-1.6-.61-.72-.92-1.67-.92-2.86,0-1,.27-1.91.82-2.72.55-.81,1.32-1.45,2.32-1.93,1-.47,2.17-.71,3.5-.71,2.83,0,5.09.86,6.81,2.57l-1.8,2.27Z"/>
          <path class="cls-2" d="M168.34,187.97v2.82h-5.52v15.42h-3.2v-15.42h-5.52v-2.82h14.25Z"/>
          <path class="cls-2" d="M187.65,187.97v2.82h-9.3v4.7h8.09v2.82h-8.09v5.09h9.3v2.82h-12.5v-18.24h12.5Z"/>
          <path class="cls-2" d="M199.19,187.97l5.2,8.97,5.2-8.97h4.35v18.24h-3.2v-13.94l-5.55,9.93h-1.59l-5.55-9.93v13.94h-3.2v-18.24h4.35Z"/>
          <path class="cls-2" d="M233.04,192.51c-.71-.69-1.52-1.22-2.43-1.57-.91-.36-1.87-.53-2.87-.53-.93,0-1.67.22-2.23.66-.56.44-.83.99-.83,1.67,0,.47.26.88.77,1.22.51.34,1.23.63,2.16.89.18.07.36.13.53.18.17.05.33.09.48.12,1.09.31,2.03.62,2.82.93.78.31,1.49.7,2.13,1.18.53.4.95.91,1.26,1.53.31.62.47,1.32.47,2.11,0,1.79-.64,3.18-1.91,4.17s-2.99,1.49-5.14,1.49c-1.6,0-3.03-.26-4.27-.77s-2.3-1.22-3.17-2.13l1.8-2.38c.73.8,1.58,1.43,2.56,1.87.97.45,2.05.67,3.21.67,1.08,0,1.95-.22,2.63-.67.67-.45,1.01-1.08,1.01-1.9,0-.53-.18-.96-.55-1.29-.36-.33-.82-.59-1.37-.78-.55-.19-1.31-.41-2.3-.67-1.35-.33-2.45-.66-3.29-1.01-.85-.35-1.58-.88-2.19-1.6-.61-.72-.92-1.67-.92-2.86,0-1,.27-1.91.82-2.72.55-.81,1.32-1.45,2.32-1.93,1-.47,2.17-.71,3.5-.71,2.83,0,5.09.86,6.81,2.57l-1.8,2.27Z"/>
        </g>
      </g>
      <path class="cls-1" d="M219.31,54.34c0-.71-.02-1.42-.03-2.15,0-.72-.02-1.45-.03-2.18-.02-.74-.03-1.49-.04-2.25-.02-.76-.03-1.52-.06-2.31-.02-.78-.04-1.58-.07-2.4-.03-.81-.05-1.64-.09-2.5-.03-.85-.06-1.72-.1-2.62-.03-.89-.08-1.81-.13-2.75-.04-.88-.21-1.76-.52-2.62-.29-.83-.7-1.64-1.22-2.39-.5-.75-1.11-1.45-1.8-2.08-.7-.63-1.47-1.19-2.31-1.66-.84-.48-1.67-.95-2.48-1.41-.81-.45-1.6-.9-2.38-1.35-.77-.43-1.53-.87-2.27-1.29-.74-.43-1.47-.84-2.18-1.25-.71-.41-1.41-.81-2.1-1.2-.69-.39-1.36-.78-2.04-1.17l-25.42-14.72c-.74-.43-1.49-.86-2.26-1.29-.77-.44-1.55-.89-2.35-1.35-.8-.46-1.66-.82-2.56-1.05-1.76-.47-3.64-.47-5.39,0-.89.23-1.76.59-2.56,1.05-.79.46-1.58.91-2.34,1.35-.77.43-1.52.87-2.26,1.29-.73.43-1.46.84-2.17,1.25l-25.29,14.64c-.69.39-1.39.79-2.1,1.2-.71.41-1.43.83-2.17,1.25-.74.42-1.5.85-2.27,1.29-.77.44-1.56.89-2.37,1.35-.81.46-1.64.93-2.49,1.41-.83.47-1.6,1.03-2.3,1.66-.69.63-1.29,1.33-1.8,2.07-.52.77-.93,1.57-1.22,2.4-.31.86-.49,1.75-.53,2.62-.04.94-.09,1.86-.12,2.75-.04.89-.08,1.76-.11,2.62-.03.85-.06,1.69-.09,2.5-.03.82-.04,1.62-.07,2.4-.02.78-.03,1.55-.05,2.31-.02.76-.03,1.51-.04,2.25,0,.73-.03,1.47-.03,2.18,0,.72,0,1.44-.02,2.15,0,.72,0,1.42,0,2.13v2.11c0,.71,0,1.41,0,2.13,0,.71,0,1.42.02,2.15,0,.72.03,1.45.03,2.19,0,.73.03,1.48.04,2.24.02.76.03,1.52.05,2.31.03.78.04,1.58.07,2.4.03.81.06,1.64.09,2.5.03.85.07,1.72.11,2.62.03.89.08,1.81.12,2.75.04.89.22,1.76.53,2.62.29.84.7,1.64,1.22,2.4.5.74,1.11,1.44,1.8,2.07.7.63,1.47,1.19,2.3,1.66.85.48,1.68.95,2.49,1.41.81.46,1.6.9,2.37,1.35.78.43,1.53.87,2.27,1.29.74.43,1.47.84,2.17,1.25l2.1,1.2c.69.39,1.36.78,2.03,1.17l25.43,14.72c.74.43,1.49.86,2.26,1.29.77.44,1.55.89,2.34,1.35.81.46,1.67.82,2.56,1.06.88.23,1.79.35,2.69.35s1.82-.12,2.7-.35c.89-.24,1.75-.6,2.56-1.06.8-.46,1.58-.91,2.35-1.35.77-.43,1.52-.87,2.26-1.29l25.42-14.72c.67-.38,1.35-.78,2.04-1.17l2.1-1.2c.72-.41,1.44-.83,2.18-1.25.74-.42,1.5-.85,2.27-1.29.78-.44,1.57-.89,2.38-1.35.81-.46,1.64-.93,2.48-1.41.83-.47,1.61-1.03,2.31-1.66.69-.63,1.29-1.33,1.8-2.07.52-.77.93-1.57,1.22-2.4.31-.86.48-1.75.52-2.62.05-.94.09-1.86.13-2.75.04-.89.08-1.76.1-2.62.03-.85.06-1.69.09-2.5.03-.82.05-1.62.07-2.4.03-.78.04-1.55.06-2.31.02-.76.03-1.51.04-2.24,0-.74.02-1.47.03-2.19,0-.72.02-1.44.03-2.15,0-.72,0-1.42,0-2.13v-2.11c0-.71,0-1.41,0-2.13ZM163.52,68.8h-6.1l-.42,2.12c-1.82,9.13-9.83,15.71-19.14,15.71h-1.81l3.55-17.82c1.82-9.13,9.83-15.71,19.14-15.71h23.93c-1.82,9.13-9.83,15.71-19.14,15.71ZM175.27,48.54h-31.55s-.08-.04-.07-.08c2.02-10.16,10.94-17.48,21.3-17.48h31.72c-2.03,10.21-10.99,17.56-21.41,17.56Z"/>
    </g>
  </g>
</svg>