<?xml version="1.0" encoding="UTF-8"?>
<svg id="Layer_2" data-name="Layer 2" xmlns="http://www.w3.org/2000/svg" viewBox="0 0 180.36 188.06">
  <defs>
    <style>
      .cls-1 {
        fill: #203b4c;
      }
    </style>
  </defs>
  <g id="Layer_1-2" data-name="Layer 1">
    <g>
      <path class="cls-1" d="M96.67,84.92c-.53,0-.96-.42-.96-.95s.43-.96.96-.96.95.43.95.96-.43.95-.95.95Z"/>
      <path class="cls-1" d="M97.83,95.1c-.53,0-.96-.43-.96-.96s.43-.96.96-.96.95.43.95.96-.42.96-.95.96Z"/>
      <path class="cls-1" d="M88.99,100.95l.96,1.61c-.11.04-.23.07-.35.07-.53,0-.96-.43-.96-.96,0-.29.14-.55.35-.72Z"/>
      <path class="cls-1" d="M78.83,103.77c0-.52.43-.95.95-.95s.96.43.96.95-.43.96-.96.96-.95-.43-.95-.96Z"/>
      <path class="cls-1" d="M68.13,94.42c0,.53-.43.96-.96.96s-.95-.43-.95-.96.42-.95.95-.95.96.43.96.95Z"/>
      <circle class="cls-1" cx="66.12" cy="83.98" r=".96"/>
      <path class="cls-1" d="M85.06,71.67c.53,0,.96.43.96.95s-.43.96-.96.96-.95-.43-.95-.96.42-.95.95-.95Z"/>
      <path class="cls-1" d="M96.87,94.14c0,.53.43.96.96.96s.95-.43.95-.96-.42-.96-.95-.96-.96.43-.96.96ZM97.83,90.1c2.23,0,4.04,1.81,4.04,4.04s-1.81,4.04-4.04,4.04-4.05-1.81-4.05-4.04,1.82-4.04,4.05-4.04Z"/>
      <path class="cls-1" d="M96.67,88.01c-2.23,0-4.05-1.81-4.05-4.04s1.82-4.05,4.05-4.05,4.04,1.82,4.04,4.05-1.81,4.04-4.04,4.04ZM95.71,83.97c0,.53.43.95.96.95s.95-.42.95-.95-.43-.96-.95-.96-.96.43-.96.96Z"/>
      <path class="cls-1" d="M85.06,68.58c2.23,0,4.05,1.82,4.05,4.04s-1.82,4.05-4.05,4.05-4.04-1.82-4.04-4.05,1.81-4.04,4.04-4.04ZM86.02,72.62c0-.52-.43-.95-.96-.95s-.95.43-.95.95.42.96.95.96.96-.43.96-.96Z"/>
      <path class="cls-1" d="M79.78,99.73c2.23,0,4.05,1.81,4.05,4.04s-1.82,4.05-4.05,4.05-4.04-1.82-4.04-4.05,1.81-4.04,4.04-4.04ZM79.78,102.82c-.52,0-.95.43-.95.95s.43.96.95.96.96-.43.96-.96-.43-.95-.96-.95Z"/>
      <path class="cls-1" d="M84.72,167.57c1.38,0,2.5,1.12,2.5,2.5s-1.12,2.5-2.5,2.5h-9.48c-1.38,0-2.5-1.12-2.5-2.5s1.12-2.5,2.5-2.5h9.48Z"/>
      <path class="cls-1" d="M70.58,50.75c0-1.38,1.12-2.5,2.5-2.5h17.78c1.38,0,2.5,1.12,2.5,2.5s-1.12,2.5-2.5,2.5h-17.78c-1.38,0-2.5-1.12-2.5-2.5Z"/>
      <path class="cls-1" d="M68.13,94.42c0-.52-.43-.95-.96-.95s-.95.43-.95.95.42.96.95.96.96-.43.96-.96ZM67.17,90.38c2.23,0,4.05,1.81,4.05,4.04s-1.82,4.05-4.05,4.05-4.04-1.82-4.04-4.05,1.81-4.04,4.04-4.04Z"/>
      <path class="cls-1" d="M66.12,79.94c2.23,0,4.04,1.81,4.04,4.04s-1.81,4.04-4.04,4.04-4.04-1.81-4.04-4.04,1.81-4.04,4.04-4.04ZM67.08,83.98c0-.53-.43-.96-.96-.96s-.96.43-.96.96.43.96.96.96.96-.43.96-.96Z"/>
      <path class="cls-1" d="M89.95,102.56l-.96-1.61c-.21.17-.35.43-.35.72,0,.53.43.96.96.96.12,0,.24-.03.35-.07ZM96.41,147.5c-.08.09-.16.17-.25.24-.03.03-.07.06-.1.09-.09.07-.19.13-.29.19l-.12.06c-.1.06-.21.1-.33.14-.04.02-.08.03-.13.04-.11.03-.23.06-.35.07-.03,0-.05,0-.08.02h-.08c-.05,0-.1.01-.15.01h-24.21l4.85,7.89h46l8.38-12.05c.71-1.02,1.25-2.13,1.6-3.31.28-.87.44-1.75.51-2.67l2.91-40.01c.11-1.58-.32-3.16-1.21-4.45l-9.12-13.23c-.04-.05-.07-.1-.1-.15l-9.73-14.11c-.48-.69-1.15-.85-1.5-.88-.62-.04-1.22.18-1.65.63-1.03,1.08-1.9,2.29-2.57,3.59-.28.54-.52,1.1-.72,1.65-1.14,3.14-1.16,6.66-.07,10.18.9,2.91,2.54,5.72,4.76,8.12.63.69.83,1.67.52,2.54-1.33,3.71-2.16,7.59-2.46,11.51-.29,3.99-.06,7.96.7,11.8.22,1.12-.36,2.26-1.4,2.75-.01,0-2.31,1.11-4.95,3.6-3.3,3.13-5.65,6.96-6.98,11.39-1.14,3.79-1.5,7.99-1.08,12.47.01.04,0,.07,0,.1.01.05.02.09.02.14,0,.06-.02.11-.02.16,0,.07-.01.14-.02.2-.01.1-.03.21-.06.31-.02.05-.03.1-.05.15-.04.11-.08.21-.13.31-.02.04-.04.08-.07.12-.06.1-.12.2-.19.29-.03.03-.06.06-.08.1ZM99.12,108.22l4.75,8.01c.87-.69,1.68-1.24,2.32-1.64-.58-3.72-.74-7.53-.46-11.35.05-.61.13-1.22.2-1.82l-6.81,6.8ZM87.41,98.28l-5.44-9.18-11.12,18.75,1.06,1.05c.39.4.92.61,1.48.61h16.5c.56,0,1.09-.21,1.48-.61l1.47-1.47-1.32-2.22c-.58.31-1.23.51-1.92.51-2.23,0-4.05-1.82-4.05-4.05,0-1.42.74-2.67,1.86-3.39ZM66.63,171.41l10.27,5.94c.81.46,1.62.93,2.45,1.4.14.08.29.16.44.25l.35.2c.57.33,1.11.65,1.66.96l1.29.75c1.1.63,2.27,1.11,3.47,1.43,2.38.62,4.88.62,7.28,0,1.18-.32,2.34-.8,3.44-1.43l3.31-1.91c.15-.09.3-.17.45-.26.81-.46,1.63-.93,2.44-1.39l1.11-.64,24.16-13.99c-.02-.06-.03-.11-.05-.17-.02-.03-.03-.07-.04-.11-.05-.11-.11-.21-.17-.31l-.03-.03c-.06-.09-.12-.17-.2-.24-.02-.03-.06-.06-.09-.09-.05-.05-.11-.1-.17-.14-.04-.03-.08-.05-.12-.08-.06-.04-.13-.07-.19-.11-.05-.02-.09-.03-.13-.05-.07-.03-.15-.05-.23-.07-.04-.01-.08-.03-.12-.03-.12-.03-.24-.04-.37-.04h-58.22c-1.09,0-1.99.89-1.99,1.99v8.17ZM67.2,104.2l11.11-18.72c.75-1.31,2.12-2.1,3.66-2.1s2.91.79,3.67,2.12l10.85,18.29,6.56-6.56c.39-.4.61-.92.61-1.48v-10.96c0-.1.01-.19.03-.28-.21-.53-.4-1.06-.57-1.6-.65-2.11-.98-4.23-1.01-6.32-.27-.12-.52-.28-.74-.5l-10-10c-.39-.39-.92-.61-1.48-.61h-16.5c-.56,0-1.09.22-1.48.61l-11.68,11.68c-.39.39-.61.91-.61,1.47v16.51c0,.56.22,1.08.62,1.48l6.96,6.97ZM62.26,148.36c-10.07,0-18.27-8.19-18.27-18.26V50.82c0-6.61,3.53-12.41,8.81-15.62,2.76-1.68,6-2.65,9.46-2.65h39.42c10.07,0,18.27,8.2,18.27,18.27v14.67l8.4,12.19c.04.05.07.09.09.14l9.03,13.1c1.54,2.21,2.28,4.92,2.09,7.64l-2.91,40.02c-.1,1.32-.34,2.59-.72,3.79-.5,1.64-1.26,3.23-2.27,4.68l-6.42,9.22c.18.01.34.02.51.04.08.01.16.03.24.04.25.04.49.09.73.16.05.02.1.02.15.04.27.08.54.19.8.3.07.03.13.07.2.1.2.1.41.21.6.33.06.03.12.07.18.11.24.15.46.32.68.5.04.04.08.08.12.11.18.16.35.32.51.5.05.05.1.11.15.17.19.21.37.44.53.67,0,.01.01.03.02.04.15.23.28.47.41.71.02.04.04.06.05.1l12.52-7.25c.83-.48,1.68-.96,2.54-1.45l3.3-1.9c1.14-.65,2.28-1.31,3.45-1.98.77-.43,1.51-.86,2.26-1.28l3.12-1.77c.66-.37,1.33-.75,2-1.13l.61-.35c1.09-.62,2.21-1.26,3.34-1.89,1.15-.65,2.23-1.43,3.22-2.32.93-.85,1.76-1.81,2.46-2.83.7-1.04,1.25-2.13,1.63-3.23.41-1.13.64-2.28.7-3.47.07-1.43.13-2.83.19-4.19v-.16c.08-1.41.13-2.77.17-4.12v-.48c.06-1.18.1-2.34.13-3.48v-.12c.05-1.24.08-2.45.1-3.65.04-1.12.07-2.18.09-3.23l.02-.45c.01-.59.02-1.17.03-1.75.01-.61.02-1.22.04-1.82,0-1.13.01-2.29.03-3.45.01-1.13.02-2.27.04-3.41v-6.68s0-3.35,0-3.35c-.02-1.13-.03-2.26-.04-3.41-.02-1.12-.03-2.29-.04-3.46,0-.56-.02-1.16-.03-1.77-.01-.58-.02-1.17-.03-1.76v-.33c-.04-1.09-.07-2.19-.1-3.32-.02-1.21-.06-2.41-.1-3.63v-.18c-.04-1.17-.09-2.38-.13-3.6v-.35c-.05-1.35-.1-2.71-.17-4.12v-.17c-.07-1.36-.13-2.76-.2-4.18-.06-1.19-.29-2.35-.69-3.46-.39-1.12-.94-2.2-1.65-3.24-.69-1.02-1.52-1.98-2.47-2.85-.99-.9-2.07-1.67-3.19-2.3l-.92-.51c-1.03-.59-2.04-1.16-3.03-1.73-1.28-.72-2.55-1.43-3.79-2.15-.83-.46-1.68-.94-2.52-1.42l-4.52-2.59c-1.13-.66-2.24-1.29-3.32-1.91-.85-.48-1.7-.96-2.53-1.44l-.71-.41-41.52-24.04c-.79-.45-1.58-.91-2.39-1.37-.98-.57-1.95-1.12-2.93-1.69l-.81-.46c-1.1-.64-2.26-1.11-3.45-1.42-1.19-.32-2.42-.48-3.65-.48s-2.44.16-3.62.47c-1.2.32-2.36.79-3.48,1.43l-1.59.92c-.71.41-1.41.81-2.11,1.22-.83.47-1.62.93-2.41,1.38l-1.18.68c-1.15.67-2.31,1.34-3.46,1.99l-24.11,13.94-19.35,11.19c-1.11.64-2.26,1.31-3.43,1.98l-.92.52c-.89.51-1.8,1.02-2.73,1.54-1.18.69-2.45,1.4-3.74,2.13-1.27.72-2.59,1.47-3.96,2.23-1.11.63-2.19,1.41-3.19,2.32-.93.84-1.76,1.8-2.46,2.83-.7,1.04-1.25,2.13-1.64,3.22-.41,1.15-.64,2.31-.7,3.47-.06,1.36-.12,2.72-.17,4.03l-.02.31c-.07,1.35-.11,2.65-.16,3.92v.22c-.03.69-.05,1.4-.08,2.09-.02.63-.05,1.25-.07,1.85l-.11,3.82c-.02,1.22-.05,2.43-.08,3.65-.02,1.08-.04,2.14-.06,3.2v.35c-.01.57-.02,1.16-.03,1.75-.01.57-.02,1.13-.03,1.69v1.09c-.01.78-.01,1.56-.03,2.33v6.69s0,3.38,0,3.38c.02.73.02,1.51.03,2.3v1.09c.01.56.02,1.12.03,1.69.01.59.02,1.18.02,1.78v.37c.03,1.04.05,2.09.07,3.15.03,1.2.06,2.43.08,3.68l.11,3.77c.02.62.05,1.25.07,1.88.03.69.05,1.38.07,2.08v.14c.06,1.3.1,2.62.17,3.96l.02.35c.05,1.31.11,2.66.17,4.03.06,1.15.29,2.31.7,3.43.39,1.13.94,2.22,1.65,3.27.69,1.01,1.52,1.97,2.46,2.84.97.86,2.05,1.65,3.21,2.31,1.19.66,2.38,1.34,3.55,2l2.1,1.2c.7.39,1.38.77,2.06,1.16.57.32,1.16.65,1.74.98.62.36,1.23.71,1.84,1.05l6.81,3.91c1.09.62,2.17,1.24,3.23,1.86l26.18,15.15v-5.27c0-3.86,3.14-6.99,6.99-6.99h.68l-4.56-7.42c-.1-.15-.17-.31-.23-.47h-2.25ZM49.63,134.14c1.71,5.34,6.73,9.22,12.63,9.22h29.61c-.1-3.21.17-6.3.81-9.22h-43.05ZM66.63,177.18l-33.69-19.5c-1.04-.6-2.1-1.22-3.19-1.83l-6.81-3.92c-.58-.33-1.21-.68-1.84-1.04-.57-.32-1.15-.65-1.74-.98-.68-.39-1.36-.77-2.04-1.16l-2.13-1.21c-1.14-.65-2.31-1.32-3.52-1.98-1.5-.86-2.88-1.85-4.12-2.97-1.24-1.14-2.32-2.39-3.24-3.73-.96-1.43-1.71-2.91-2.23-4.41-.56-1.56-.89-3.2-.97-4.86-.07-1.38-.12-2.74-.18-4.06v-.33c-.08-1.35-.13-2.69-.18-4.01v-.15c-.03-.71-.05-1.39-.08-2.06-.02-.65-.04-1.28-.06-1.92l-.11-3.8c-.03-1.27-.05-2.49-.08-3.68-.03-1.07-.05-2.14-.07-3.18v-.4c-.01-.6-.02-1.18-.03-1.76s-.02-1.15-.03-1.73v-1.11c-.01-.76-.01-1.52-.03-2.28v-6.77s0-3.38,0-3.38c.02-.8.02-1.56.03-2.32v-1.1c.01-.58.02-1.15.03-1.73s.02-1.16.02-1.73v-.37c.03-1.08.05-2.16.08-3.24.03-1.21.05-2.41.07-3.65l.12-3.85c.02-.62.04-1.25.06-1.89.03-.68.05-1.37.08-2.07v-.23c.05-1.29.1-2.61.17-3.97v-.29c.07-1.32.12-2.68.19-4.06.08-1.65.41-3.3.98-4.89.52-1.48,1.26-2.96,2.21-4.37.93-1.35,2.01-2.6,3.23-3.72,1.3-1.17,2.67-2.16,4.11-2.98,1.37-.76,2.67-1.5,3.95-2.22s2.53-1.43,3.74-2.13c.95-.53,1.84-1.04,2.72-1.54l.91-.52c1.16-.66,2.3-1.32,3.42-1.96l3.36-1.92,40.1-23.22c1.15-.65,2.29-1.3,3.44-1.98l1.2-.69c.79-.45,1.6-.92,2.41-1.38.68-.39,1.39-.8,2.11-1.21l1.59-.92c1.51-.87,3.09-1.51,4.69-1.93,3.2-.85,6.6-.85,9.82,0,1.61.42,3.18,1.07,4.67,1.92l.81.46c.99.58,1.97,1.14,2.93,1.7.79.44,1.6.91,2.39,1.36l1.18.68,41.06,23.77c.82.48,1.64.95,2.49,1.43,1.11.63,2.22,1.27,3.35,1.93l4.5,2.57c.83.47,1.67.95,2.52,1.43,1.26.72,2.51,1.42,3.78,2.14,1,.57,2.01,1.14,3.04,1.72l.9.51c1.43.8,2.82,1.8,4.11,2.96,1.25,1.15,2.33,2.4,3.24,3.75.95,1.39,1.7,2.87,2.22,4.38.56,1.55.89,3.19.97,4.87.08,1.42.14,2.84.2,4.22v.15c.07,1.42.12,2.82.16,4.18l.02.33c.04,1.24.09,2.46.12,3.63v.18c.05,1.25.08,2.47.1,3.67.04,1.1.07,2.21.1,3.32v.33c.02.6.03,1.2.04,1.79.01.6.02,1.19.03,1.77.01,1.2.02,2.35.04,3.48.01,1.17.02,2.29.04,3.4v10.16c-.02,1.17-.03,2.29-.04,3.43-.02,1.17-.03,2.31-.04,3.47,0,.63-.02,1.22-.03,1.81s-.02,1.19-.04,1.79v.45c-.03,1.06-.06,2.14-.1,3.23-.02,1.18-.05,2.42-.09,3.68v.13c-.04,1.14-.09,2.31-.13,3.51l-.02.46c-.04,1.36-.09,2.76-.16,4.18v.14c-.06,1.38-.12,2.8-.2,4.24-.08,1.67-.41,3.31-.97,4.88-.51,1.47-1.26,2.95-2.21,4.36-.93,1.36-2.01,2.61-3.24,3.73-1.27,1.15-2.66,2.15-4.13,2.98-1.13.63-2.23,1.26-3.31,1.88l-.61.34c-.68.39-1.36.77-2.03,1.15l-3.1,1.75c-.76.43-1.51.86-2.26,1.28-1.14.66-2.29,1.33-3.44,1.98l-3.31,1.91c-.87.48-1.69.96-2.51,1.43l-.72.42-14.84,8.59-.71.41-3.05,1.77h0s-22.85,13.22-22.85,13.22c-.82.47-1.64.95-2.49,1.42l-.36.22c-.15.08-.3.17-.45.25l-2.9,1.67c-1.47.85-3.04,1.5-4.66,1.93-1.63.43-3.28.64-4.93.64s-3.28-.21-4.89-.63c-1.64-.44-3.2-1.09-4.68-1.93l-1.32-.76c-.54-.32-1.08-.63-1.61-.93-.12-.07-.27-.16-.42-.24l-.35-.21c-.86-.48-1.69-.96-2.5-1.43l-7.78-4.5ZM54.62,79.24c0-1.89.74-3.67,2.08-5.01l11.67-11.67c1.34-1.34,3.12-2.08,5.02-2.08h16.5c1.9,0,3.68.74,5.02,2.08l8.03,8.03c.1-.34.2-.69.32-1.03.28-.76.61-1.51.98-2.24.89-1.72,2.04-3.33,3.42-4.77,1.48-1.54,3.55-2.31,5.66-2.14.56.05,1.1.16,1.63.34v-9.93c0-7.32-5.96-13.27-13.27-13.27h-39.42c-7.32,0-13.27,5.95-13.27,13.27v78.32h44.14c.36,0,.69.08,1,.21.88-2.27,2.02-4.42,3.39-6.41h-.37c-1.38,0-2.5-1.12-2.5-2.5s1.12-2.5,2.5-2.5h1.92l-3.6-6.07-.56.57c-1.34,1.34-3.12,2.07-5.02,2.07h-16.5c-1.9,0-3.68-.73-5.02-2.07l-.15-.15-3.35,5.65h1.91c1.38,0,2.5,1.12,2.5,2.5s-1.12,2.5-2.5,2.5h-6.3c-.9,0-1.73-.48-2.18-1.26-.44-.78-.43-1.74.03-2.51l6.24-10.53-7.87-7.88c-1.34-1.34-2.08-3.12-2.08-5.01v-16.51Z"/>
    </g>
  </g>
</svg>