<?xml version="1.0" encoding="UTF-8"?>
<svg id="Layer_2" data-name="Layer 2" xmlns="http://www.w3.org/2000/svg" viewBox="0 0 180.37 188.06">
  <defs>
    <style>
      .cls-1 {
        fill: #fff;
      }

      .cls-2 {
        fill: #203b4c;
      }
    </style>
  </defs>
  <g id="Layer_1-2" data-name="Layer 1">
    <g>
      <path class="cls-2" d="M128.4,42.86c2.12,0,3.85,1.6,4.11,3.65-5.05.68-10.5,1.65-16.8,2.98-.6.15-2.22.55-3.93.96-2.12.51-4.37,1.05-5.06,1.23-1.31.37-2.94.86-4.56,1.34-1.53.45-3.04.9-4.3,1.26-6.63,2.12-13.25,4.51-19.67,7.09-6.49,2.61-12.93,5.48-19.14,8.54-3.79,1.86-7.54,3.83-11.24,5.86v-28.75c0-2.29,1.87-4.16,4.16-4.16h76.43Z"/>
      <path class="cls-2" d="M132.56,67.23v8.06c-7.25-.11-14.23.77-20.87,1.98,7.08-3.6,14.09-6.93,20.87-10.04Z"/>
      <path class="cls-2" d="M132.56,100.43v9.99c-.1-.01-.19-.04-.3-.05-2.6-.41-5.35-.65-8.16-.71-2.63-.06-5.37.04-8.14.28-.59.05-1.18.1-1.78.17,6.14-3.31,12.28-6.51,18.38-9.68Z"/>
      <path class="cls-2" d="M132.56,114.54v26.49c0,2.29-1.86,4.16-4.16,4.16H51.97c-2.29,0-4.16-1.87-4.16-4.16v-29.58c2.45,2.44,6.28,3.7,10.64,1.71,4.52-2.01,9.13-3.92,13.76-5.75l.78-5.7-7.99-8.33c-1.5-1.57-2.01-3.82-1.35-5.87.67-2.06,2.41-3.58,4.54-3.96l11.37-2.05,4.91-9.16c-11.18,6.15-24,14.12-35.42,23.95-.46.35-.86.72-1.24,1.09v-14.64c2.19-.88,4.37-1.74,6.51-2.56,6.72-2.58,13.4-4.92,19.84-6.97,4.12-1.31,8.23-2.52,12.29-3.63,1.04-.86,2.35-1.35,3.74-1.35.34,0,.67.04,1,.09.54-.14,1.09-.28,1.63-.42-.34.18-.7.36-1.05.54,1.52.43,2.82,1.45,3.59,2.88l5.46,10.18,11.36,2.05c2.13.38,3.87,1.9,4.54,3.96.67,2.05.15,4.3-1.34,5.87l-.38.39c.22-.05.44-.1.66-.14-.43.26-.86.53-1.29.79l-6.99,7.29,1.57,11.45c.23,1.68-.28,3.37-1.38,4.64-.7.81-1.6,1.39-2.58,1.72-.59.2-1.22.3-1.85.3-.89,0-1.74-.2-2.55-.59l-10.4-5.02-10.4,5.02c-.33.16-.67.28-1.01.37-.21.37-.4.75-.51,1.11-.79,2.46,0,5.06,2.01,6.62,1.05.82,2.3,1.23,3.54,1.23,1.03,0,2.05-.29,2.95-.85,6.46-3.34,12.5-6.02,18.26-8.07,9.11-3.22,17.5-4.88,25.63-5.09.63-.02,1.26-.02,1.9-.01ZM112.85,90.95c1.31-1.36.57-3.63-1.29-3.96l-13.03-2.35-6.26-11.67c-.44-.83-1.26-1.24-2.08-1.24s-1.64.41-2.09,1.24l-6.26,11.67-13.03,2.35c-1.85.33-2.59,2.6-1.29,3.96l9.17,9.56-.75,5.44c2.34-.89,4.69-1.77,7.03-2.61,7.33-2.56,16.36-5.7,25.78-8.11l4.1-4.28ZM103.14,116.32c1.35,0,2.55-1.19,2.34-2.69l-1.71-12.52c-4.55,2.94-9.13,6.02-13.63,9.23l.05-.02,11.92,5.76c.34.17.69.24,1.03.24Z"/>
      <path class="cls-2" d="M180.12,95.7v1.69c-.01.56-.01,1.12-.01,1.69l-.08,6.9c-.02.62-.03,1.22-.04,1.82-.01.59-.02,1.17-.03,1.77v.3c-.03,1.11-.06,2.24-.09,3.39s-.07,2.35-.11,3.58v.22c-.04,1.36-.09,2.66-.14,3.98-.04,1.35-.09,2.74-.16,4.17-.06,1.41-.12,2.89-.21,4.39-.08,1.65-.4,3.29-.96,4.86-.52,1.5-1.27,2.98-2.22,4.38-.91,1.35-2,2.6-3.24,3.73-1.27,1.15-2.66,2.15-4.12,2.97l-5.63,3.19c-.69.39-1.38.78-2.06,1.16l-1.41.8c-.74.43-1.47.84-2.2,1.25l-6.77,3.89c-.6.34-1.18.67-1.76,1.01l-1.47.84-41.29,23.91c-.87.5-1.75,1-2.64,1.51-1.19.69-2.44,1.41-3.71,2.14-1.47.84-3.04,1.49-4.66,1.92s-3.28.64-4.93.64-3.29-.21-4.9-.63c-1.62-.44-3.19-1.08-4.68-1.93l-3.73-2.15-2.61-1.5-.96-.56-41.13-23.8c-.8-.46-1.61-.93-2.43-1.4l-3.34-1.91c-1.13-.65-2.28-1.31-3.46-1.99l-1.48-.84c-.69-.39-1.39-.79-2.1-1.19-.8-.46-1.59-.9-2.4-1.36l-1.37-.78c-1.28-.73-2.59-1.47-3.94-2.22-1.47-.84-2.84-1.83-4.1-2.96-1.24-1.14-2.33-2.39-3.24-3.74-.96-1.4-1.71-2.88-2.23-4.4-.57-1.58-.9-3.23-.97-4.86l-.04-.89c-.06-1.19-.11-2.36-.15-3.5-.07-1.3-.12-2.58-.17-3.84v-.31c-.03-.76-.06-1.48-.08-2.2l-.12-3.54c-.01-.69-.03-1.37-.05-2.04l-.08-3.7c-.03-1.26-.06-2.43-.07-3.58-.01-.61-.02-1.21-.03-1.81l-.03-1.66c0-.57-.01-1.15-.01-1.72s-.01-1.13-.02-1.68v-6.77s0-3.38,0-3.38c.01-.59.02-1.15.02-1.71s.01-1.15.01-1.72l.03-1.65c.01-.6.02-1.2.03-1.81.01-1.16.04-2.33.06-3.52l.09-3.74c.02-.7.04-1.38.05-2.07l.12-3.54c.02-.72.05-1.45.07-2.18v-.34c.06-1.26.11-2.54.18-3.86.04-1.11.09-2.29.15-3.48l.04-.87c.07-1.65.4-3.29.98-4.89.51-1.5,1.26-2.98,2.21-4.38.92-1.35,2.01-2.6,3.24-3.73,1.27-1.14,2.64-2.14,4.1-2.96,1.36-.76,2.67-1.5,3.95-2.23,1.29-.72,2.53-1.43,3.74-2.13.74-.41,1.44-.81,2.13-1.2l1.5-.85c1.16-.67,2.31-1.33,3.42-1.98l3.36-1.91,40.1-23.21c1.14-.66,2.29-1.32,3.44-1.99l.94-.54c.88-.51,1.77-1.02,2.67-1.53l3.7-2.13c1.52-.87,3.1-1.51,4.7-1.93,3.19-.85,6.59-.85,9.82.01,1.59.41,3.16,1.05,4.66,1.91,1.27.73,2.52,1.45,3.73,2.15.88.5,1.77,1.01,2.65,1.52l.93.53,41.77,24.19c.59.34,1.18.68,1.78,1.02,1.1.62,2.22,1.26,3.35,1.91l3.45,1.99c.67.37,1.37.77,2.08,1.17l1.5.86c1.23.7,2.48,1.42,3.76,2.13,1.3.74,2.61,1.48,3.95,2.24,1.45.81,2.84,1.81,4.1,2.95,1.26,1.15,2.35,2.41,3.26,3.76.93,1.37,1.69,2.85,2.22,4.37.55,1.56.87,3.2.96,4.87.08,1.48.14,2.96.2,4.39.07,1.41.12,2.8.16,4.17.05,1.3.1,2.6.13,3.87v.31c.05,1.23.09,2.43.12,3.61.03,1.12.06,2.25.08,3.36v.3c.02.6.03,1.19.04,1.78.01.6.02,1.2.04,1.79l.08,6.9c0,.59,0,1.15.01,1.71v5.05ZM175.12,97.36v-6.68c-.01-.57-.01-1.14-.01-1.72l-.08-6.77c-.02-.64-.02-1.24-.04-1.85-.01-.58-.02-1.17-.03-1.75v-.31c-.03-1.09-.05-2.2-.09-3.33-.03-1.19-.07-2.38-.1-3.59v-.23c-.05-1.34-.09-2.62-.14-3.94-.05-1.36-.1-2.72-.17-4.13-.05-1.43-.12-2.87-.2-4.35-.06-1.19-.29-2.35-.68-3.46-.39-1.12-.94-2.2-1.64-3.22-.7-1.04-1.53-2-2.48-2.87-.98-.88-2.06-1.66-3.2-2.3-1.34-.76-2.66-1.5-3.94-2.24-1.28-.71-2.54-1.43-3.78-2.13l-1.51-.86c-.7-.4-1.39-.79-2.07-1.18l-3.48-1.99c-1.12-.65-2.23-1.29-3.32-1.9-.6-.35-1.21-.7-1.8-1.04l-1.43-.82-41.28-23.9c-.86-.5-1.74-1-2.63-1.51-1.23-.71-2.48-1.42-3.74-2.15-1.11-.64-2.26-1.11-3.44-1.41-1.2-.32-2.43-.48-3.66-.48s-2.44.16-3.63.47-2.35.78-3.47,1.42l-3.71,2.14c-.91.52-1.78,1.02-2.65,1.52l-.93.54c-1.16.67-2.31,1.34-3.45,1.99l-43.46,25.13c-1.12.64-2.27,1.31-3.45,1.98l-1.51.86c-.69.39-1.4.8-2.12,1.2-1.2.69-2.46,1.41-3.76,2.13-1.27.73-2.59,1.47-3.94,2.23-1.13.64-2.21,1.42-3.2,2.31-.93.86-1.76,1.81-2.46,2.84-.7,1.04-1.26,2.12-1.64,3.22-.41,1.17-.64,2.33-.7,3.47l-.04.87c-.05,1.18-.1,2.34-.15,3.47-.06,1.33-.11,2.6-.16,3.84v.31l-.09,2.19-.11,3.49c-.02.7-.03,1.39-.06,2.08l-.08,3.63c-.03,1.25-.05,2.41-.06,3.55-.01.61-.02,1.23-.03,1.84l-.04,3.31c-.01.57-.01,1.15-.02,1.71v6.71s0,3.38,0,3.38c.01.53.01,1.11.02,1.68l.04,3.32c.01.61.02,1.23.03,1.85.01,1.12.03,2.27.06,3.44l.08,3.75c.03.65.04,1.35.06,2.05l.11,3.49c.03.73.06,1.46.08,2.21v.28c.06,1.25.11,2.52.17,3.83.05,1.15.1,2.31.15,3.48l.04.89c.05,1.13.29,2.29.7,3.44.38,1.12.94,2.2,1.64,3.24.7,1.03,1.53,1.98,2.47,2.84.98.89,2.06,1.66,3.2,2.31,1.34.76,2.66,1.5,3.95,2.23l1.37.78c.81.46,1.62.91,2.4,1.37.69.38,1.4.79,2.1,1.18l1.49.85c1.19.68,2.34,1.35,3.47,2l3.33,1.9c.83.47,1.65.94,2.46,1.41l42.08,24.36c.85.49,1.72.99,2.59,1.49l3.75,2.16c1.09.62,2.26,1.1,3.45,1.42,2.38.63,4.9.62,7.28,0,1.19-.32,2.35-.8,3.45-1.43,1.26-.73,2.51-1.44,3.72-2.14.9-.51,1.76-1.01,2.62-1.5l.97-.56,41.79-24.19c.59-.34,1.18-.69,1.79-1.03l6.77-3.88c.74-.42,1.46-.83,2.2-1.25l1.41-.8c.68-.39,1.37-.78,2.08-1.18l5.63-3.19c1.14-.64,2.22-1.42,3.21-2.31.94-.86,1.77-1.81,2.46-2.84.71-1.04,1.26-2.12,1.64-3.22.4-1.13.63-2.29.69-3.47.08-1.49.15-2.93.2-4.34.07-1.43.12-2.79.16-4.13.06-1.34.1-2.62.14-3.87v-.32c.04-1.21.08-2.4.11-3.56.04-1.16.06-2.27.09-3.37v-.3c.01-.58.02-1.16.03-1.73.02-.62.02-1.22.04-1.82l.08-6.85c0-.55,0-1.12.01-1.69Z"/>
      <path class="cls-2" d="M175.12,95.7v1.66c-.01.57-.01,1.14-.01,1.69l-.08,6.85c-.02.6-.02,1.2-.04,1.82-.01.57-.02,1.15-.03,1.73v.3c-.03,1.1-.05,2.21-.09,3.37-.03,1.16-.07,2.35-.1,3.56v.32c-.05,1.25-.09,2.53-.15,3.87-.04,1.34-.09,2.7-.16,4.13-.05,1.41-.12,2.85-.2,4.34-.06,1.18-.29,2.34-.69,3.47-.38,1.1-.93,2.18-1.64,3.22-.69,1.03-1.52,1.98-2.46,2.84-.99.89-2.07,1.67-3.21,2.31l-5.63,3.19c-.71.4-1.4.79-2.08,1.18l-1.41.8c-.74.42-1.46.83-2.2,1.25l-6.77,3.88c-.61.34-1.2.69-1.79,1.03l-41.79,24.19-.97.56c-.86.49-1.72.99-2.62,1.5-1.21.7-2.46,1.41-3.72,2.14-1.1.63-2.26,1.11-3.45,1.43-2.38.62-4.9.63-7.28,0-1.19-.32-2.36-.8-3.45-1.42l-3.75-2.16c-.87-.5-1.74-1-2.59-1.49l-42.08-24.36c-.81-.47-1.63-.94-2.46-1.41l-3.33-1.9c-1.13-.65-2.28-1.32-3.47-2l-1.49-.85c-.7-.39-1.41-.8-2.1-1.18-.78-.46-1.59-.91-2.4-1.37l-1.37-.78c-1.29-.73-2.61-1.47-3.95-2.23-1.14-.65-2.22-1.42-3.2-2.31-.94-.86-1.77-1.81-2.47-2.84-.7-1.04-1.26-2.12-1.64-3.24-.41-1.15-.65-2.31-.7-3.44l-.04-.89c-.05-1.17-.1-2.33-.15-3.48-.06-1.31-.11-2.58-.16-3.83v-.28c-.03-.75-.06-1.48-.09-2.21l-.11-3.49c-.02-.7-.03-1.4-.06-2.05l-.08-3.75c-.03-1.17-.05-2.32-.06-3.44-.01-.62-.02-1.24-.03-1.85l-.04-3.32c-.01-.57-.01-1.15-.02-1.68v-3.38s0-6.71,0-6.71c.01-.56.01-1.14.02-1.71l.04-3.31c.01-.61.02-1.23.03-1.84.01-1.14.03-2.3.06-3.55l.08-3.63c.03-.69.04-1.38.06-2.08l.11-3.49c.03-.73.06-1.46.08-2.19v-.31c.06-1.24.11-2.51.17-3.84.05-1.13.1-2.29.15-3.47l.04-.87c.06-1.14.29-2.3.7-3.47.38-1.1.94-2.18,1.64-3.22.7-1.03,1.53-1.98,2.46-2.84.99-.89,2.07-1.67,3.2-2.31,1.35-.76,2.67-1.5,3.94-2.23,1.3-.72,2.56-1.44,3.76-2.13.72-.4,1.43-.81,2.12-1.2l1.51-.86c1.18-.67,2.33-1.34,3.45-1.98l43.46-25.13c1.14-.65,2.29-1.32,3.45-1.99l.93-.54c.87-.5,1.74-1,2.65-1.52l3.71-2.14c1.12-.64,2.28-1.11,3.47-1.42s2.41-.47,3.63-.47,2.46.16,3.66.48c1.18.3,2.33.77,3.44,1.41,1.26.73,2.51,1.44,3.74,2.15.89.51,1.77,1.01,2.63,1.51l41.28,23.9,1.43.82c.59.34,1.2.69,1.8,1.04,1.09.61,2.2,1.25,3.32,1.9l3.48,1.99c.68.39,1.37.78,2.07,1.18l1.51.86c1.24.7,2.5,1.42,3.78,2.13,1.28.74,2.6,1.48,3.94,2.24,1.14.64,2.22,1.42,3.2,2.3.95.87,1.78,1.83,2.48,2.87.7,1.02,1.25,2.1,1.64,3.22.39,1.11.62,2.27.68,3.46.08,1.48.15,2.92.2,4.35.07,1.41.12,2.77.17,4.13.05,1.32.09,2.6.13,3.94v.23c.04,1.21.08,2.4.11,3.59.04,1.13.06,2.24.09,3.33v.31c.01.58.02,1.17.03,1.75.02.61.02,1.21.04,1.85l.08,6.77c0,.58,0,1.15.01,1.72v5.02ZM147.07,92.9c3.8-1.8,5.73-6.71,4.22-10.68-1.84-5.53-7.75-6.09-12.5-6.55-.42-.04-.82-.08-1.23-.13v-10.57c1.09-.49,2.19-.99,3.26-1.47.41-.18.83-.35,1.27-.53,2.05-.84,4.37-1.79,6.06-3.63,2.38-2.52,2.99-6,1.57-9.07-1.41-3.06-4.45-4.92-7.8-4.75-1.46.11-2.94.24-4.43.4-.55-4.53-4.41-8.06-9.09-8.06H51.97c-5.05,0-9.16,4.11-9.16,9.16v31.58c-.74.43-1.49.85-2.22,1.29-1.33.78-2.65,1.58-3.96,2.38-.65.41-1.31.82-1.96,1.23-.29.18-.56.38-.83.58-.26.21-.52.4-.78.55-.37.21-.74.46-1.03.87-.42.6-.46,1.37-.11,1.96.28.44.77.74,1.35.81.63.08,1.19-.09,1.64-.23,2.21-.69,4.39-1.66,6.48-2.6.48-.21.95-.41,1.42-.62v56.21c0,5.05,4.11,9.16,9.16,9.16h76.43c5.05,0,9.16-4.11,9.16-9.16v-26.51c.18-.05.37-.1.55-.18.74-.32.85-.9.86-1.13.02-.27-.04-.68-.45-1.07-.29-.27-.62-.46-.96-.61v-13.7c2.79-1.44,5.57-2.88,8.32-4.32.12-.06.36-.18.6-.31.24-.12.48-.25.59-.3Z"/>
      <path class="cls-1" d="M151.29,82.22c1.51,3.97-.42,8.88-4.22,10.68-.11.05-.35.18-.59.3-.24.13-.48.25-.6.31-2.75,1.44-5.53,2.88-8.32,4.32v13.7c.34.15.67.34.96.61.41.39.47.8.45,1.07-.01.23-.12.81-.86,1.13-.18.08-.37.13-.55.18v26.51c0,5.05-4.11,9.16-9.16,9.16H51.97c-5.05,0-9.16-4.11-9.16-9.16v-56.21c-.47.21-.94.41-1.42.62-2.09.94-4.27,1.91-6.48,2.6-.45.14-1.01.31-1.64.23-.58-.07-1.07-.37-1.35-.81-.35-.59-.31-1.36.11-1.96.29-.41.66-.66,1.03-.87.26-.15.52-.34.78-.55.27-.2.54-.4.83-.58.65-.41,1.31-.82,1.96-1.23,1.31-.8,2.63-1.6,3.96-2.38.73-.44,1.48-.86,2.22-1.29v-31.58c0-5.05,4.11-9.16,9.16-9.16h76.43c4.68,0,8.54,3.53,9.09,8.06,1.49-.16,2.97-.29,4.43-.4,3.35-.17,6.39,1.69,7.8,4.75,1.42,3.07.81,6.55-1.57,9.07-1.69,1.84-4.01,2.79-6.06,3.63-.44.18-.86.35-1.27.53-1.07.48-2.17.98-3.26,1.47v10.57c.41.05.81.09,1.23.13,4.75.46,10.66,1.02,12.5,6.55ZM132.56,141.03v-26.49c-.64-.01-1.27-.01-1.9.01-8.13.21-16.52,1.87-25.63,5.09l-.04-.12c.98-.33,1.88-.91,2.58-1.72,1.1-1.27,1.61-2.96,1.38-4.64l-1.57-11.45,6.99-7.29c.43-.26.86-.53,1.29-.79-.22.04-.44.09-.66.14l.38-.39c1.49-1.57,2.01-3.82,1.34-5.87-.67-2.06-2.41-3.58-4.54-3.96l-11.36-2.05-5.46-10.18c-.77-1.43-2.07-2.45-3.59-2.88.35-.18.71-.36,1.05-.54-.54.14-1.09.28-1.63.42-.33-.05-.66-.09-1-.09-1.39,0-2.7.49-3.74,1.35-4.06,1.11-8.17,2.32-12.29,3.63-6.44,2.05-13.12,4.39-19.84,6.97-2.14.82-4.32,1.68-6.51,2.56v14.64c.38-.37.78-.74,1.24-1.09,11.42-9.83,24.24-17.8,35.42-23.95l-4.91,9.16-11.37,2.05c-2.13.38-3.87,1.9-4.54,3.96-.66,2.05-.15,4.3,1.35,5.87l7.99,8.33-.78,5.7c-4.63,1.83-9.24,3.74-13.76,5.75-4.36,1.99-8.19.73-10.64-1.71v29.58c0,2.29,1.87,4.16,4.16,4.16h76.43c2.3,0,4.16-1.87,4.16-4.16ZM132.56,110.42v-9.99c-6.1,3.17-12.24,6.37-18.38,9.68.6-.07,1.19-.12,1.78-.17,2.77-.24,5.51-.34,8.14-.28,2.81.06,5.56.3,8.16.71.11.01.2.04.3.05ZM132.56,75.29v-8.06c-6.78,3.11-13.79,6.44-20.87,10.04,6.64-1.21,13.62-2.09,20.87-1.98ZM132.51,46.51c-.26-2.05-1.99-3.65-4.11-3.65H51.97c-2.29,0-4.16,1.87-4.16,4.16v28.75c3.7-2.03,7.45-4,11.24-5.86,6.21-3.06,12.65-5.93,19.14-8.54,6.42-2.58,13.04-4.97,19.67-7.09,1.26-.36,2.77-.81,4.3-1.26,1.62-.48,3.25-.97,4.56-1.34.69-.18,2.94-.72,5.06-1.23,1.71-.41,3.33-.81,3.93-.96,6.3-1.33,11.75-2.3,16.8-2.98Z"/>
      <path class="cls-1" d="M111.56,86.99c1.86.33,2.6,2.6,1.29,3.96l-4.1,4.28c-9.42,2.41-18.45,5.55-25.78,8.11-2.34.84-4.69,1.72-7.03,2.61l.75-5.44-9.17-9.56c-1.3-1.36-.56-3.63,1.29-3.96l13.03-2.35,6.26-11.67c.45-.83,1.27-1.24,2.09-1.24s1.64.41,2.08,1.24l6.26,11.67,13.03,2.35Z"/>
      <path class="cls-1" d="M105.48,113.63c.21,1.5-.99,2.69-2.34,2.69-.34,0-.69-.07-1.03-.24l-11.92-5.76-.05.02c4.5-3.21,9.08-6.29,13.63-9.23l1.71,12.52Z"/>
      <path class="cls-1" d="M104.99,119.52l.04.12c-5.76,2.05-11.8,4.73-18.26,8.07-.9.56-1.92.85-2.95.85-1.24,0-2.49-.41-3.54-1.23-2.01-1.56-2.8-4.16-2.01-6.62.11-.36.3-.74.51-1.11.34-.09.68-.21,1.01-.37l10.4-5.02,10.4,5.02c.81.39,1.66.59,2.55.59.63,0,1.26-.1,1.85-.3Z"/>
    </g>
  </g>
</svg>