<?xml version="1.0" encoding="UTF-8"?>
<svg id="Layer_2" data-name="Layer 2" xmlns="http://www.w3.org/2000/svg" viewBox="0 0 179.87 187.56">
  <defs>
    <style>
      .cls-1 {
        fill: none;
      }

      .cls-2 {
        fill: #203b4c;
      }
    </style>
  </defs>
  <g id="Layer_1-2" data-name="Layer 1">
    <g>
      <path class="cls-1" d="M115.71,109.69c2.77-.24,5.51-.34,8.14-.28,2.81.06,5.56.3,8.16.71.1.02.2.04.3.06v-9.99c-6.1,3.16-12.24,6.37-18.38,9.67.6-.06,1.19-.12,1.78-.17Z"/>
      <path class="cls-1" d="M86.51,127.46c-.9.57-1.92.85-2.95.85-1.24,0-2.49-.41-3.54-1.23-2.01-1.56-2.8-4.15-2.01-6.62.11-.36.3-.74.52-1.11.34-.09.68-.21,1-.37l10.4-5.03,10.4,5.03c.81.39,1.67.59,2.55.59,1.69,0,3.3-.74,4.43-2.02,1.11-1.27,1.61-2.96,1.38-4.64l-1.57-11.44,6.99-7.29c.43-.26.86-.53,1.28-.8-.22.05-.44.09-.66.14l.38-.39c1.5-1.56,2.01-3.81,1.34-5.87-.67-2.06-2.41-3.58-4.54-3.96l-11.37-2.05-5.46-10.18c-.77-1.43-2.07-2.45-3.59-2.88.35-.18.71-.37,1.05-.54-.54.14-1.09.28-1.64.42-.33-.06-.66-.1-1-.1-1.39,0-2.7.49-3.74,1.35-4.06,1.11-8.17,2.32-12.29,3.63-6.45,2.05-13.12,4.4-19.84,6.97-2.14.82-4.32,1.69-6.51,2.56v14.64c.38-.38.78-.74,1.24-1.09,11.42-9.83,24.24-17.8,35.42-23.96l-4.92,9.16-11.37,2.05c-2.13.38-3.87,1.9-4.54,3.96s-.15,4.31,1.34,5.87l7.99,8.34-.78,5.69c-4.63,1.83-9.24,3.75-13.77,5.75-4.35,1.99-8.18.73-10.63-1.71v29.58c0,2.29,1.87,4.16,4.16,4.16h76.43c2.29,0,4.16-1.86,4.16-4.16v-26.49c-.64,0-1.27,0-1.9.01-13.28.35-27.23,4.53-43.89,13.16ZM102.89,116.08c-.34,0-.69-.08-1.03-.24l-11.92-5.76-.04.02c4.5-3.21,9.07-6.29,13.63-9.23l1.71,12.52c.2,1.49-.99,2.69-2.34,2.69ZM67.27,90.71c-1.31-1.36-.57-3.63,1.29-3.96l13.03-2.35,6.26-11.67c.45-.83,1.26-1.25,2.08-1.25s1.64.42,2.08,1.25l6.26,11.67,13.03,2.35c1.86.33,2.59,2.6,1.29,3.96l-4.1,4.28c-9.43,2.41-18.46,5.55-25.78,8.11-2.35.84-4.69,1.72-7.03,2.61l.74-5.44-9.16-9.56Z"/>
      <path class="cls-1" d="M77.93,61.12c6.42-2.58,13.04-4.97,19.67-7.09,1.27-.36,2.78-.81,4.3-1.26,1.62-.48,3.25-.97,4.56-1.34.69-.18,2.95-.72,5.06-1.23,1.71-.41,3.33-.8,3.93-.96,6.31-1.33,11.75-2.3,16.8-2.98-.26-2.05-1.99-3.65-4.11-3.65H51.72c-2.29,0-4.16,1.86-4.16,4.16v28.75c3.69-2.03,7.44-4,11.23-5.87,6.21-3.06,12.65-5.93,19.14-8.54Z"/>
      <path class="cls-1" d="M132.31,75.05v-8.06c-6.79,3.11-13.79,6.43-20.87,10.04,6.64-1.21,13.62-2.09,20.87-1.98Z"/>
      <path class="cls-1" d="M174.86,88.72l-.08-6.77c-.01-.64-.02-1.24-.04-1.85,0-.58-.02-1.17-.03-1.75v-.31c-.03-1.09-.06-2.2-.09-3.33-.03-1.19-.06-2.38-.1-3.59v-.23c-.05-1.34-.09-2.63-.14-3.94-.04-1.36-.09-2.73-.16-4.13-.06-1.43-.12-2.88-.2-4.35-.06-1.19-.29-2.35-.68-3.46-.39-1.12-.94-2.2-1.64-3.22-.7-1.04-1.53-2-2.48-2.87-.98-.89-2.06-1.66-3.2-2.3-1.35-.76-2.66-1.51-3.95-2.24-1.27-.71-2.54-1.43-3.78-2.14l-1.51-.86c-.7-.4-1.39-.79-2.07-1.18l-3.47-1.99c-1.13-.65-2.23-1.28-3.32-1.9-.61-.35-1.21-.69-1.81-1.04l-1.43-.82-41.28-23.9c-.87-.5-1.74-1-2.63-1.51-1.23-.71-2.48-1.43-3.74-2.16-1.1-.63-2.26-1.11-3.43-1.41-1.21-.32-2.44-.48-3.67-.48s-2.44.16-3.62.47c-1.2.31-2.36.78-3.48,1.42l-3.7,2.14c-.91.52-1.79,1.02-2.65,1.52l-.93.54c-1.16.67-2.31,1.34-3.45,1.99l-43.46,25.13c-1.11.64-2.26,1.31-3.44,1.98l-1.51.86c-.7.4-1.41.8-2.12,1.2-1.2.69-2.47,1.42-3.76,2.14-1.27.72-2.59,1.47-3.95,2.23-1.13.64-2.21,1.42-3.19,2.31-.93.85-1.76,1.81-2.46,2.83-.71,1.04-1.26,2.13-1.64,3.23-.41,1.16-.65,2.32-.7,3.47l-.04.87c-.05,1.18-.11,2.34-.15,3.47-.06,1.33-.11,2.6-.16,3.84v.31c-.03.72-.06,1.46-.09,2.19l-.11,3.49c-.02.7-.04,1.39-.06,2.08l-.08,3.64c-.03,1.25-.05,2.4-.07,3.54,0,.62-.02,1.23-.03,1.84l-.04,3.31c0,.58,0,1.15-.01,1.72v6.7s0,3.38,0,3.38c0,.54,0,1.11.01,1.69l.04,3.31c.01.61.02,1.23.03,1.85.01,1.12.04,2.27.07,3.44l.08,3.75c.02.65.04,1.35.06,2.05l.11,3.49c.03.73.05,1.47.08,2.21v.28c.06,1.25.11,2.52.17,3.83.04,1.16.1,2.31.15,3.49l.04.89c.05,1.13.29,2.29.7,3.44.39,1.12.94,2.21,1.65,3.25.69,1.02,1.53,1.98,2.47,2.84.97.88,2.05,1.66,3.2,2.31,1.35.75,2.66,1.5,3.95,2.23l1.37.77c.82.46,1.62.92,2.41,1.37.69.39,1.4.79,2.1,1.18l1.49.84c1.2.69,2.35,1.35,3.47,2l3.33,1.9c.83.47,1.65.95,2.46,1.42l42.08,24.35c.86.49,1.72.99,2.6,1.49l3.74,2.16c1.09.62,2.26,1.1,3.46,1.42,2.38.62,4.89.62,7.28,0,1.19-.32,2.35-.8,3.44-1.43,1.27-.73,2.51-1.44,3.72-2.15.9-.51,1.76-1.01,2.62-1.5l.97-.56,41.79-24.19c.59-.34,1.18-.68,1.79-1.02l6.77-3.89c.74-.42,1.47-.83,2.2-1.25l1.41-.8c.68-.39,1.38-.78,2.08-1.18l5.63-3.19c1.15-.64,2.23-1.42,3.22-2.32.93-.85,1.76-1.81,2.46-2.83.71-1.04,1.26-2.13,1.64-3.23.4-1.13.63-2.29.69-3.47.08-1.49.15-2.93.2-4.34.07-1.43.12-2.79.16-4.13.05-1.34.09-2.62.13-3.87v-.31c.05-1.21.09-2.4.11-3.56.04-1.16.06-2.27.09-3.37v-.3c.02-.58.03-1.16.04-1.74.01-.61.02-1.22.04-1.82l.08-6.85c0-.55,0-1.12,0-1.69,0-.56,0-1.11,0-1.66v-3.35c0-.55,0-1.11,0-1.66,0-.57,0-1.14,0-1.71ZM146.82,92.65c-.11.05-.35.18-.59.31s-.47.25-.59.31c-2.75,1.44-5.54,2.88-8.32,4.32v13.7c.34.15.67.34.96.61.41.39.47.79.46,1.06-.01.23-.13.81-.87,1.13-.18.08-.36.13-.55.18v26.51c0,5.05-4.11,9.16-9.16,9.16H51.72c-5.05,0-9.16-4.11-9.16-9.16v-56.21c-.47.21-.95.41-1.42.62-2.1.94-4.27,1.91-6.49,2.6-.45.14-1,.31-1.63.23-.58-.07-1.07-.37-1.35-.81h0c-.36-.58-.32-1.35.11-1.96.28-.4.66-.65,1.03-.86.26-.15.52-.34.79-.55.27-.2.53-.4.82-.59.65-.41,1.31-.82,1.96-1.22,1.31-.81,2.63-1.6,3.95-2.39.74-.44,1.49-.86,2.23-1.29v-31.58c0-5.05,4.11-9.16,9.16-9.16h76.43c4.67,0,8.54,3.52,9.08,8.05,1.49-.15,2.97-.29,4.43-.4,3.35-.17,6.39,1.69,7.8,4.75,1.42,3.08.81,6.55-1.57,9.07-1.68,1.84-4.01,2.79-6.06,3.63-.43.18-.86.35-1.27.53-1.07.48-2.17.98-3.26,1.47v10.58c.41.04.81.09,1.23.13,4.75.46,10.66,1.02,12.5,6.55,1.51,3.97-.42,8.87-4.22,10.67Z"/>
      <path class="cls-2" d="M179.86,90.4c0-.56,0-1.12,0-1.71l-.08-6.9c-.01-.59-.02-1.19-.03-1.79-.01-.59-.02-1.18-.03-1.78v-.31c-.03-1.11-.06-2.24-.09-3.35-.02-1.18-.06-2.38-.1-3.61v-.32c-.05-1.26-.09-2.56-.14-3.87-.04-1.37-.1-2.76-.16-4.17-.05-1.43-.12-2.91-.2-4.39-.08-1.67-.41-3.31-.96-4.86-.53-1.53-1.28-3-2.22-4.37-.91-1.35-2-2.62-3.25-3.76-1.27-1.14-2.65-2.14-4.11-2.96-1.34-.76-2.65-1.5-3.95-2.24-1.28-.71-2.53-1.43-3.76-2.13l-1.51-.86c-.71-.4-1.4-.8-2.07-1.18l-3.46-1.98c-1.13-.65-2.24-1.29-3.34-1.92-.6-.34-1.19-.68-1.78-1.02L106.83,6.76l-.93-.53c-.88-.51-1.77-1.02-2.65-1.52-1.22-.7-2.46-1.42-3.74-2.15-1.49-.86-3.07-1.5-4.66-1.91-3.23-.86-6.63-.86-9.82,0-1.6.41-3.18,1.05-4.7,1.92l-3.69,2.14c-.9.51-1.79,1.02-2.67,1.53l-.94.54c-1.16.67-2.3,1.33-3.44,1.98L29.49,31.96l-3.36,1.92c-1.12.65-2.27,1.31-3.42,1.97l-1.51.85c-.69.39-1.39.79-2.12,1.2-1.21.7-2.45,1.41-3.74,2.13-1.28.73-2.59,1.47-3.95,2.23-1.46.83-2.84,1.82-4.1,2.96-1.23,1.12-2.32,2.38-3.24,3.73-.95,1.41-1.7,2.88-2.22,4.38-.57,1.6-.9,3.25-.98,4.89l-.04.88c-.05,1.19-.11,2.36-.15,3.48-.06,1.32-.11,2.6-.16,3.86v.33c-.04.74-.06,1.47-.09,2.19l-.11,3.54c-.02.69-.04,1.37-.06,2.07l-.08,3.74c-.03,1.18-.05,2.36-.07,3.52,0,.61-.02,1.21-.03,1.81l-.03,1.65c0,.58,0,1.15-.01,1.72,0,.57,0,1.13-.01,1.72v3.38S.01,98.86.01,98.86c0,.56.01,1.12.01,1.69,0,.57,0,1.14.01,1.72l.03,1.65c.01.6.02,1.21.03,1.82.01,1.14.04,2.31.07,3.58l.08,3.69c.02.67.04,1.35.06,2.04l.11,3.54c.03.72.05,1.45.08,2.21v.3c.06,1.26.11,2.55.18,3.84.04,1.14.1,2.31.15,3.5l.04.89c.08,1.63.41,3.27.97,4.86.52,1.51,1.27,2.99,2.23,4.4.92,1.35,2,2.6,3.25,3.74,1.25,1.13,2.63,2.13,4.1,2.96,1.35.75,2.65,1.5,3.93,2.22l1.38.78c.8.45,1.59.9,2.39,1.36.71.4,1.41.8,2.1,1.19l1.49.84c1.17.67,2.32,1.34,3.45,1.99l3.34,1.91c.82.47,1.63.94,2.43,1.4l41.12,23.8.96.55c.87.5,1.74,1,2.61,1.5l3.73,2.16c1.48.84,3.05,1.49,4.67,1.92,1.61.42,3.26.64,4.91.64s3.31-.21,4.93-.64c1.62-.43,3.19-1.08,4.66-1.92,1.27-.73,2.52-1.45,3.72-2.14.89-.5,1.77-1.01,2.63-1.51l41.29-23.91,1.47-.84c.58-.33,1.17-.67,1.77-1.01l6.77-3.88c.72-.41,1.46-.83,2.2-1.25l1.41-.8c.68-.39,1.37-.78,2.06-1.17l5.62-3.19c1.46-.82,2.85-1.82,4.13-2.97,1.23-1.13,2.32-2.38,3.24-3.73.95-1.4,1.7-2.88,2.22-4.38.56-1.57.88-3.21.96-4.87.08-1.5.15-2.97.2-4.38.07-1.43.12-2.83.16-4.17.05-1.33.09-2.63.14-3.98v-.22c.05-1.23.08-2.43.11-3.59.04-1.15.06-2.27.09-3.39v-.3c.02-.59.03-1.18.04-1.77.01-.6.02-1.2.04-1.82l.08-6.91c0-.56,0-1.13,0-1.68,0-.57,0-1.13,0-1.69v-3.35c0-.56,0-1.13,0-1.69ZM174.87,95.45c0,.55,0,1.11,0,1.66,0,.57,0,1.14,0,1.69l-.08,6.85c-.01.6-.02,1.21-.04,1.82,0,.57-.02,1.15-.03,1.74v.3c-.03,1.1-.06,2.2-.09,3.37-.03,1.16-.06,2.35-.1,3.56v.31c-.05,1.25-.09,2.54-.14,3.87-.04,1.34-.09,2.7-.16,4.13-.05,1.41-.12,2.85-.2,4.34-.06,1.18-.29,2.34-.69,3.47-.38,1.1-.93,2.19-1.64,3.23-.69,1.02-1.52,1.98-2.46,2.83-.99.9-2.07,1.67-3.22,2.32l-5.63,3.19c-.7.4-1.4.79-2.08,1.18l-1.41.8c-.74.42-1.46.83-2.2,1.25l-6.77,3.89c-.6.34-1.2.68-1.79,1.02l-41.79,24.19-.97.56c-.86.49-1.72.99-2.62,1.5-1.21.7-2.46,1.42-3.72,2.15-1.09.63-2.25,1.11-3.44,1.43-2.39.62-4.9.63-7.28,0-1.2-.32-2.37-.8-3.46-1.42l-3.74-2.16c-.88-.5-1.74-1-2.6-1.49l-42.08-24.35c-.81-.47-1.63-.94-2.46-1.42l-3.33-1.9c-1.12-.65-2.28-1.31-3.47-2l-1.49-.84c-.7-.4-1.41-.8-2.1-1.18-.79-.45-1.59-.91-2.41-1.37l-1.37-.77c-1.29-.73-2.6-1.48-3.95-2.23-1.14-.65-2.22-1.43-3.2-2.31-.94-.86-1.77-1.82-2.47-2.84-.71-1.04-1.26-2.13-1.65-3.25-.41-1.14-.64-2.3-.7-3.44l-.04-.89c-.05-1.18-.11-2.33-.15-3.49-.06-1.31-.11-2.58-.16-3.83v-.28c-.03-.75-.06-1.48-.09-2.21l-.11-3.49c-.02-.7-.04-1.39-.06-2.05l-.08-3.75c-.03-1.16-.05-2.31-.07-3.44,0-.62-.02-1.24-.03-1.85l-.04-3.31c0-.58,0-1.15-.01-1.69v-3.38s0-6.7,0-6.7c0-.57,0-1.14.01-1.72l.04-3.31c.01-.61.02-1.23.03-1.84.01-1.14.04-2.29.07-3.54l.08-3.64c.02-.68.04-1.38.06-2.08l.11-3.49c.03-.73.05-1.47.07-2.19v-.31c.06-1.25.11-2.51.18-3.84.04-1.13.1-2.29.15-3.47l.04-.87c.06-1.14.29-2.3.7-3.47.38-1.1.93-2.18,1.64-3.23.7-1.02,1.53-1.98,2.46-2.83.98-.89,2.06-1.67,3.19-2.31,1.36-.76,2.67-1.51,3.95-2.23,1.29-.72,2.56-1.45,3.76-2.14.72-.4,1.42-.8,2.12-1.2l1.51-.86c1.18-.68,2.33-1.34,3.44-1.98l43.46-25.13c1.14-.65,2.29-1.32,3.45-1.99l.93-.54c.87-.5,1.74-1,2.65-1.52l3.7-2.14c1.12-.64,2.28-1.11,3.48-1.42,1.18-.32,2.4-.47,3.62-.47s2.46.16,3.67.48c1.18.3,2.33.78,3.43,1.41,1.27.73,2.51,1.44,3.74,2.16.89.5,1.77,1.01,2.63,1.51l41.28,23.9,1.43.82c.6.34,1.2.69,1.81,1.04,1.09.62,2.19,1.25,3.32,1.9l3.47,1.99c.68.38,1.38.78,2.07,1.18l1.51.86c1.24.71,2.5,1.43,3.78,2.14,1.29.73,2.6,1.48,3.95,2.24,1.14.64,2.22,1.42,3.2,2.3.95.87,1.78,1.82,2.48,2.87.7,1.02,1.25,2.1,1.64,3.22.4,1.11.62,2.27.68,3.46.08,1.47.15,2.92.2,4.35.07,1.4.12,2.77.16,4.13.05,1.31.09,2.6.13,3.94v.23c.05,1.21.08,2.4.11,3.59.04,1.13.06,2.24.09,3.33v.31c.02.59.03,1.17.04,1.75.01.61.02,1.22.04,1.85l.08,6.77c0,.57,0,1.15,0,1.71,0,.56,0,1.11,0,1.66v3.35Z"/>
      <path class="cls-2" d="M103.52,100.87c-4.55,2.94-9.13,6.02-13.63,9.23l.04-.02,11.92,5.76c.34.16.69.24,1.03.24,1.35,0,2.55-1.2,2.34-2.69l-1.71-12.52Z"/>
      <path class="cls-2" d="M82.72,103.09c7.32-2.55,16.35-5.7,25.78-8.11l4.1-4.28c1.31-1.36.57-3.63-1.29-3.96l-13.03-2.35-6.26-11.67c-.45-.83-1.26-1.25-2.08-1.25s-1.64.42-2.08,1.25l-6.26,11.67-13.03,2.35c-1.86.33-2.59,2.6-1.29,3.96l9.16,9.56-.74,5.44c2.34-.9,4.68-1.77,7.03-2.61Z"/>
      <path class="cls-2" d="M138.54,75.43c-.42-.04-.82-.09-1.23-.13v-10.58c1.09-.49,2.19-.99,3.26-1.47.41-.18.83-.35,1.27-.53,2.05-.84,4.38-1.79,6.06-3.63,2.39-2.52,2.99-6,1.57-9.07-1.41-3.06-4.45-4.92-7.8-4.75-1.46.11-2.94.24-4.43.4-.55-4.53-4.41-8.05-9.08-8.05H51.72c-5.05,0-9.16,4.11-9.16,9.16v31.58c-.74.43-1.49.85-2.23,1.29-1.33.78-2.64,1.58-3.95,2.39-.66.4-1.31.81-1.96,1.22-.29.18-.56.38-.82.59-.27.21-.52.4-.79.55-.37.21-.74.46-1.03.86-.42.61-.47,1.38-.11,1.96h0c.27.44.76.74,1.35.81.63.08,1.19-.09,1.63-.23,2.22-.69,4.39-1.66,6.49-2.6.47-.21.95-.41,1.42-.62v56.21c0,5.05,4.11,9.16,9.16,9.16h76.43c5.05,0,9.16-4.11,9.16-9.16v-26.51c.18-.05.36-.1.55-.18.74-.33.85-.9.87-1.13.02-.27-.05-.68-.46-1.06-.29-.27-.62-.46-.96-.61v-13.7c2.78-1.44,5.57-2.88,8.32-4.32.12-.06.36-.18.59-.31s.48-.25.59-.31c3.8-1.8,5.73-6.71,4.22-10.67-1.84-5.53-7.75-6.1-12.5-6.55ZM47.56,46.78c0-2.29,1.87-4.16,4.16-4.16h76.43c2.12,0,3.85,1.6,4.11,3.65-5.05.68-10.5,1.65-16.8,2.98-.6.15-2.22.54-3.93.96-2.11.51-4.36,1.05-5.06,1.23-1.31.37-2.94.85-4.56,1.34-1.52.45-3.03.9-4.3,1.26-6.63,2.12-13.25,4.5-19.67,7.09-6.49,2.61-12.93,5.48-19.14,8.54-3.79,1.86-7.54,3.83-11.23,5.87v-28.75ZM132.31,140.78c0,2.29-1.87,4.16-4.16,4.16H51.72c-2.29,0-4.16-1.86-4.16-4.16v-29.58c2.45,2.45,6.28,3.7,10.63,1.71,4.53-2.01,9.13-3.92,13.77-5.75l.78-5.69-7.99-8.34c-1.5-1.56-2.01-3.81-1.34-5.87s2.41-3.58,4.54-3.96l11.37-2.05,4.92-9.16c-11.19,6.15-24.01,14.13-35.42,23.96-.46.35-.86.71-1.24,1.09v-14.64c2.18-.88,4.36-1.74,6.51-2.56,6.72-2.57,13.4-4.92,19.84-6.97,4.12-1.31,8.22-2.52,12.29-3.63,1.03-.86,2.34-1.35,3.74-1.35.34,0,.67.04,1,.1.54-.14,1.09-.29,1.64-.42-.34.18-.7.36-1.05.54,1.52.42,2.82,1.45,3.59,2.88l5.46,10.18,11.37,2.05c2.13.38,3.87,1.9,4.54,3.96.67,2.06.15,4.31-1.34,5.87l-.38.39c.22-.05.44-.1.66-.14-.42.26-.86.53-1.28.8l-6.99,7.29,1.57,11.44c.23,1.68-.27,3.37-1.38,4.64-1.12,1.28-2.73,2.02-4.43,2.02-.89,0-1.74-.2-2.55-.59l-10.4-5.03-10.4,5.03c-.33.16-.66.28-1,.37-.22.37-.41.75-.52,1.11-.79,2.46,0,5.06,2.01,6.62,1.06.82,2.3,1.23,3.54,1.23,1.03,0,2.05-.28,2.95-.85,16.67-8.62,30.61-12.81,43.89-13.16.63-.02,1.26-.02,1.9-.01v26.49ZM132.31,110.18c-.1-.02-.2-.04-.3-.06-2.6-.41-5.35-.65-8.16-.71-2.63-.06-5.37.04-8.14.28-.59.05-1.18.1-1.78.17,6.13-3.31,12.28-6.51,18.38-9.67v9.99ZM132.31,75.05c-7.26-.11-14.24.77-20.87,1.98,7.09-3.61,14.09-6.93,20.87-10.04v8.06Z"/>
    </g>
  </g>
</svg>